<?xml version="1.0" encoding="UTF-8"?>
<svg id="Laag_1" data-name="Laag 1" xmlns="http://www.w3.org/2000/svg" viewBox="0 0 1000 1000">
  <defs>
    <style>
      .cls-1 {
        fill: #fff;
      }

      .cls-2 {
        fill: #ff6a7e;
      }

      .cls-3 {
        fill: #73adb7;
      }

      .cls-4 {
        fill: #1a3856;
      }
    </style>
  </defs>
  <rect class="cls-1" x="466.05" y="265.9" width="0" height="0" transform="translate(1.55 534.49) rotate(-59.74)"/>
  <polygon class="cls-1" points="466.05 265.89 466.05 265.9 466.05 265.9 470.39 274.13 474.06 268.14 475.24 266.17 499.39 226.83 499.44 226.86 499.45 226.85 585.19 279.5 589.37 272.7 496.79 215.85 466.05 265.89"/>
  <polygon class="cls-2" points="380.47 90.53 353.62 134.26 439.37 186.91 279.13 447.84 334.31 481.73 360.66 438.82 360.7 438.82 463.83 270.88 465 268.91 494.55 220.8 497.98 222.91 580.34 273.48 607.19 229.76 380.47 90.53"/>
  <path class="cls-4" d="m377.84,79.55l-35.22,57.36,85.75,52.66-160.24,260.93,65.43,40.18,3.44,2.04,4.17-6.84h0s23.97-39.04,23.97-39.04h.04l106.67-173.69,1.18-1.97,24.16-39.34.05.03v-.02s85.75,52.65,85.75,52.65l35.22-57.36-240.35-147.6Zm120.14,143.38l-3.44-2.11-29.54,48.11-1.17,1.97-103.13,167.94h-.04l-26.35,42.91-55.18-33.89,160.24-260.93-85.75-52.66,26.85-43.72,226.71,139.23-26.85,43.72-82.35-50.57Z"/>
  <polygon class="cls-3" points="497.19 231.86 473.03 271.2 566.17 448.12 365.16 446.85 341.18 485.9 565.23 623.49 591.74 580.32 446.86 491.35 612.15 491.61 624.43 471.61 547.89 323.33 694.72 412.63 721.24 369.45 497.19 231.86"/>
  <path class="cls-4" d="m732.25,366.81l-237.68-145.96-30.74,50.05,89.04,169.14-192.17-1.22-30.52,49.71,237.68,145.96,34.88-56.8-127.5-78.3,141.38.22,16.99-27.66-65.55-126.99,129.31,78.64,34.87-56.79Zm-184.35-43.48l76.54,148.28-12.28,20-165.29-.26,144.88,88.97-26.51,43.17-224.05-137.59,23.98-39.05,201.01,1.27-93.14-176.92,24.17-39.35,224.05,137.59-26.52,43.18-146.83-89.29Z"/>
  <g>
    <polygon class="cls-2" points="267.64 712.63 296.04 712.63 296.04 784.63 316.58 784.63 316.58 712.63 344.97 712.63 344.97 695.89 267.64 695.89 267.64 712.63"/>
    <path class="cls-2" d="m414.95,756.05c5.75-2.49,10.18-6.13,13.31-10.9,3.13-4.77,4.69-10.5,4.69-17.18s-1.56-12.3-4.69-17.11c-3.13-4.82-7.56-8.51-13.31-11.09-5.75-2.58-12.59-3.87-20.54-3.87h-38.41v88.74h20.66v-24.85h17.75c.31,0,.6-.01.9-.02l17.23,24.87h22.06l-19.77-28.54s.08-.03.12-.05Zm-7.48-39.43c3.21,2.66,4.82,6.45,4.82,11.35s-1.61,8.71-4.82,11.41c-3.21,2.71-7.95,4.06-14.2,4.06h-16.61v-30.81h16.61c6.25,0,10.99,1.33,14.2,3.99Z"/>
    <rect class="cls-2" x="449.18" y="695.89" width="20.66" height="88.74"/>
    <path class="cls-2" d="m549.71,699.76c-5.75-2.58-12.59-3.87-20.54-3.87h-38.41v88.74h20.66v-24.47h17.75c7.94,0,14.79-1.31,20.54-3.93,5.75-2.62,10.18-6.32,13.31-11.09,3.13-4.77,4.69-10.5,4.69-17.18s-1.56-12.3-4.69-17.11c-3.13-4.82-7.56-8.51-13.31-11.09Zm-7.48,39.62c-3.21,2.71-7.95,4.06-14.2,4.06h-16.61v-30.81h16.61c6.25,0,10.99,1.33,14.2,3.99,3.21,2.66,4.82,6.45,4.82,11.35s-1.61,8.71-4.82,11.41Z"/>
    <polygon class="cls-2" points="602.7 747.62 643.9 747.62 643.9 731.52 602.7 731.52 602.7 712.37 649.35 712.37 649.35 695.89 582.29 695.89 582.29 784.63 651 784.63 651 768.15 602.7 768.15 602.7 747.62"/>
    <polygon class="cls-2" points="688.01 767.9 688.01 695.89 667.35 695.89 667.35 784.63 732.26 784.63 732.26 767.9 688.01 767.9"/>
  </g>
  <g>
    <polygon class="cls-3" points="336.25 875.07 303.01 819.98 286.03 819.98 286.03 908.72 305.17 908.72 305.17 856.38 331.28 899.21 340.41 899.21 366.55 855.79 366.78 908.72 385.92 908.72 385.92 819.98 368.81 819.98 336.25 875.07"/>
    <polygon class="cls-3" points="427.5 871.7 468.7 871.7 468.7 855.6 427.5 855.6 427.5 836.46 474.15 836.46 474.15 819.98 407.09 819.98 407.09 908.72 475.8 908.72 475.8 892.24 427.5 892.24 427.5 871.7"/>
    <path class="cls-3" d="m557.95,825.49c-7.35-3.68-15.85-5.51-25.48-5.51h-40.31v88.74h40.31c9.63,0,18.13-1.84,25.48-5.51,7.35-3.68,13.1-8.83,17.24-15.47,4.14-6.63,6.21-14.43,6.21-23.39s-2.07-16.75-6.21-23.39c-4.14-6.63-9.89-11.79-17.24-15.47Zm-.95,53.5c-2.41,4.18-5.79,7.4-10.14,9.63-4.35,2.24-9.49,3.36-15.4,3.36h-18.64v-55.27h18.64c5.92,0,11.05,1.12,15.4,3.36,4.35,2.24,7.73,5.43,10.14,9.57,2.41,4.14,3.61,9.04,3.61,14.71s-1.2,10.46-3.61,14.64Z"/>
    <rect class="cls-3" x="596.86" y="819.98" width="20.66" height="88.74"/>
    <path class="cls-3" d="m704.75,908.72h21.55l-39.81-88.74h-20.28l-39.43,88.74h21.04l7.91-19.02h41.1l7.91,19.02Zm-42.53-34.61l14.07-33.83,14.07,33.83h-28.14Z"/>
  </g>
  <polygon class="cls-4" points="370.06 438.88 468.16 279.13 552.87 440.04 370.06 438.88"/>
  <polygon class="cls-4" points="312.26 819.98 359.56 819.98 336.15 859.58 312.26 819.98"/>
</svg>