<?xml version="1.0" encoding="UTF-8"?>
<svg id="Laag_1" data-name="Laag 1" xmlns="http://www.w3.org/2000/svg" viewBox="0 0 1915 1000">
  <defs>
    <style>
      .cls-1 {
        fill: #ff6a7e;
      }

      .cls-2 {
        fill: #73adb7;
      }

      .cls-3 {
        fill: #1a3856;
      }
    </style>
  </defs>
  <polygon class="cls-1" points="302.47 158.15 268.5 213.46 376.98 280.08 174.26 610.19 244.07 653.06 277.4 598.78 277.45 598.78 407.92 386.31 409.41 383.82 446.79 322.96 451.13 325.62 555.32 389.6 589.29 334.29 302.47 158.15"/>
  <path class="cls-3" d="m299.14,144.25l-44.56,72.56,108.48,66.62-202.72,330.11,82.78,50.83,4.35,2.58,5.27-8.65h0s30.33-49.39,30.33-49.39h.05l134.95-219.74,1.49-2.5,30.56-49.77.06.04v-.02s108.48,66.61,108.48,66.61l44.56-72.56-304.07-186.73Zm152,181.39l-4.35-2.67-37.38,60.86-1.49,2.5-130.48,212.47h-.05l-33.34,54.28-69.81-42.87,202.72-330.11-108.48-66.62,33.97-55.31,286.82,176.14-33.97,55.31-104.19-63.98Z"/>
  <polygon class="cls-2" points="450.14 336.94 419.56 386.72 537.4 610.55 283.1 608.94 252.76 658.34 536.21 832.41 569.75 777.8 386.45 665.24 595.57 665.56 611.11 640.26 514.28 452.67 700.04 565.64 733.59 511.01 450.14 336.94"/>
  <path class="cls-3" d="m747.51,507.68l-300.7-184.66-38.88,63.32,112.65,213.99-243.12-1.54-38.62,62.88,300.7,184.66,44.13-71.86-161.3-99.06,178.86.28,21.49-35-82.93-160.66,163.6,99.49,44.12-71.84Zm-233.23-55.01l96.83,187.59-15.54,25.3-209.12-.33,183.29,112.56-33.54,54.61-283.45-174.07,30.34-49.4,254.3,1.61-117.83-223.83,30.57-49.78,283.45,174.07-33.55,54.63-185.76-112.97Z"/>
  <polygon class="cls-3" points="520.57 600.32 413.42 396.78 289.29 598.86 520.57 600.32"/>
  <g>
    <polygon class="cls-1" points="855 323.16 910.06 323.16 910.06 462.78 949.88 462.78 949.88 323.16 1004.95 323.16 1004.95 290.71 855 290.71 855 323.16"/>
    <path class="cls-1" d="m1140.64,407.35c11.14-4.83,19.75-11.88,25.81-21.14,6.06-9.26,9.09-20.36,9.09-33.31s-3.03-23.85-9.09-33.19c-6.06-9.34-14.67-16.51-25.81-21.51-11.15-5-24.42-7.5-39.82-7.5h-74.48v172.07h40.07v-48.18h34.41c.59,0,1.16-.03,1.74-.03l33.41,48.22h42.77l-38.34-55.34c.08-.03.16-.06.24-.1Zm-14.5-76.45c6.23,5.16,9.34,12.5,9.34,22s-3.11,16.88-9.34,22.12c-6.23,5.25-15.41,7.87-27.53,7.87h-32.2v-59.73h32.2c12.13,0,21.3,2.58,27.53,7.74Z"/>
    <rect class="cls-1" x="1207" y="290.71" width="40.07" height="172.07"/>
    <path class="cls-1" d="m1401.93,298.21c-11.15-5-24.42-7.5-39.82-7.5h-74.48v172.07h40.07v-47.44h34.41c15.4,0,28.68-2.54,39.82-7.62,11.14-5.08,19.75-12.25,25.81-21.51,6.06-9.26,9.09-20.36,9.09-33.31s-3.03-23.85-9.09-33.19c-6.06-9.34-14.67-16.51-25.81-21.51Zm-14.5,76.82c-6.23,5.25-15.41,7.87-27.53,7.87h-32.2v-59.73h32.2c12.13,0,21.3,2.58,27.53,7.74,6.23,5.16,9.34,12.5,9.34,22s-3.11,16.88-9.34,22.12Z"/>
    <polygon class="cls-1" points="1504.69 391 1584.58 391 1584.58 359.78 1504.69 359.78 1504.69 322.67 1595.15 322.67 1595.15 290.71 1465.11 290.71 1465.11 462.78 1598.34 462.78 1598.34 430.83 1504.69 430.83 1504.69 391"/>
    <polygon class="cls-1" points="1670.12 430.33 1670.12 290.71 1630.05 290.71 1630.05 462.78 1755.91 462.78 1755.91 430.33 1670.12 430.33"/>
  </g>
  <g>
    <polygon class="cls-2" points="1007.86 639.35 943.43 532.53 910.48 532.53 910.48 704.6 947.6 704.6 947.6 603.1 998.24 686.16 1015.94 686.16 1066.63 601.96 1067.07 704.6 1104.19 704.6 1104.19 532.53 1071 532.53 1007.86 639.35"/>
    <polygon class="cls-2" points="1184.82 632.82 1264.71 632.82 1264.71 601.6 1184.82 601.6 1184.82 564.48 1275.28 564.48 1275.28 532.53 1145.24 532.53 1145.24 704.6 1278.47 704.6 1278.47 672.64 1184.82 672.64 1184.82 632.82"/>
    <path class="cls-2" d="m1437.76,543.22c-14.26-7.13-30.73-10.69-49.41-10.69h-78.17v172.07h78.17c18.68,0,35.15-3.56,49.41-10.69,14.26-7.13,25.4-17.12,33.43-29.99,8.03-12.86,12.05-27.98,12.05-45.35s-4.02-32.49-12.05-45.35c-8.03-12.86-19.17-22.86-33.43-29.99Zm-1.84,103.74c-4.67,8.11-11.23,14.34-19.67,18.68-8.44,4.34-18.4,6.51-29.87,6.51h-36.13v-107.18h36.13c11.47,0,21.42,2.17,29.87,6.51,8.44,4.34,14.99,10.53,19.67,18.56,4.67,8.03,7.01,17.54,7.01,28.52s-2.33,20.28-7.01,28.39Z"/>
    <rect class="cls-2" x="1513.22" y="532.53" width="40.07" height="172.07"/>
    <path class="cls-2" d="m1722.41,704.6h41.79l-77.19-172.07h-39.33l-76.45,172.07h40.81l15.33-36.87h79.7l15.33,36.87Zm-82.46-67.11l27.28-65.59,27.28,65.59h-54.56Z"/>
  </g>
  <polygon class="cls-3" points="960.16 532.39 1054.52 532.39 1007.82 611.4 960.16 532.39"/>
</svg>